<?xml version="1.0" encoding="UTF-8" standalone="no"?>
<!-- Generator: Adobe Illustrator 26.1.0, SVG Export Plug-In . SVG Version: 6.00 Build 0) -->

<svg
   version="1.1"
   id="Layer_1"
   x="0px"
   y="0px"
   viewBox="0 0 3532.3799 1651.6644"
   xml:space="preserve"
   width="3532.3799"
   height="1651.6644"
   xmlns="http://www.w3.org/2000/svg"
   xmlns:svg="http://www.w3.org/2000/svg"><defs
   id="defs70" /> <g
   id="g70"
   transform="translate(-33.81,-749.34)"> <path
   d="m 1651.39,1011.73 c -0.56,6.75 -1.03,12.43 -1.67,20.07 5.4,-1.75 9.23,-3.24 13.2,-4.17 2.48,-0.58 6.16,-1.37 7.5,-0.12 1.52,1.41 2.1,5.53 1.11,7.48 -1.16,2.3 -4.24,4.42 -6.84,5.01 -3.72,0.84 -7.76,0.21 -12.37,0.21 4.35,8.8 9.85,12.07 18.99,8.83 3.5,-1.24 8.56,-1.63 11.61,0.01 8.7,4.67 16.43,2.16 25.01,-0.11 7.78,-2.05 16.31,-2.6 24.37,-1.98 11.98,0.92 22.84,-7.84 22.71,-19.89 -0.16,-15.69 1.18,-16.64 16.39,-14.06 3.22,0.55 6.82,-1.16 10.24,-1.84 -1.16,-3.24 -2.32,-6.47 -3.47,-9.71 -0.97,-2.72 -3.41,-6.21 -2.5,-7.97 1.08,-2.1 4.97,-3.6 7.76,-3.81 7.1,-0.52 14.32,0.37 21.38,-0.34 6.15,-0.62 12.16,-2.66 18.24,-4.07 0,-1.46 0,-2.92 0,-4.38 -5.62,-0.98 -11.24,-2.67 -16.87,-2.74 -5.82,-0.07 -11.65,1.56 -17.5,2.23 -3.99,0.46 -8.06,1.02 -12.03,0.7 -22.6,-1.82 -29.67,-16.28 -17.25,-34.85 3.62,-5.41 7.83,-10.64 10.2,-16.58 1.27,-3.17 -0.81,-7.67 -1.38,-11.57 -3.35,0.59 -7.56,0.08 -9.9,1.94 -12.82,10.18 -25.45,20.64 -37.62,31.59 -10.54,9.48 -9.33,18.49 2.68,26.39 8.77,5.77 8.44,7.25 1.04,15.12 -6.04,6.43 -10.8,14.06 -16.24,21.07 -3.56,4.6 -6.66,9.88 -11.11,13.42 -12.06,9.59 -19.23,7.22 -25.84,-6.81 -3.66,-7.78 -8.25,-15.13 -12.5,-22.62 -2.42,-4.27 -5.24,-4.78 -9.9,-2.31 -25.48,13.5 -35.54,8.43 -41.17,-19.71 -1.39,-6.97 0.14,-12.49 5.68,-16.4 5.01,-3.54 10.42,-6.74 16.06,-9.14 18.55,-7.9 34.9,-18.22 47.07,-35.01 24.34,-33.58 58.86,-47.4 99.23,-49.15 21.45,-0.93 42.12,1.24 60.93,12.92 3.02,1.87 7.05,2.95 10.62,2.96 20.68,0.05 39.5,7.24 58.14,14.9 2.97,1.22 4.98,4.75 7.44,7.21 -2.77,2.19 -5.49,6.18 -8.31,6.25 -11.33,0.29 -22.71,-0.29 -34.02,-1.23 -8.41,-0.7 -16.72,-2.44 -25.08,-3.72 -0.51,1.11 -1.01,2.22 -1.51,3.33 10.58,9.36 20.71,19.32 31.92,27.84 5.38,4.09 12.72,4.07 19.42,-1.16 -3.37,-2.86 -6.25,-5.3 -9.13,-7.74 0.22,-0.6 0.44,-1.21 0.65,-1.81 2.52,0.32 5.07,0.49 7.55,0.99 7.77,1.55 14.62,3.35 18.95,-7.15 1.58,-3.84 9.83,-5.36 15.32,-7.05 7.14,-2.2 13.51,-4 8.84,-13.77 -0.68,-1.43 1.3,-5.9 1.83,-5.86 3.54,0.25 7.86,0.3 10.37,2.34 12.33,10.03 12.09,10.1 26.27,3.29 7.25,-3.48 14.55,-7.47 22.28,-9.2 6.56,-1.47 13.77,-0.08 20.68,0.16 4.31,0.15 8.67,1.09 12.91,0.68 11.03,-1.06 22,-2.67 33.92,-4.18 -1.24,-12.78 -17.46,-1.92 -19.96,-13.28 3.7,0 7.28,-0.68 10.51,0.11 24.37,5.92 48.64,12.27 73.05,18.06 3.07,0.73 6.72,-1.01 10.1,-1.61 -1.74,-2.51 -3.03,-5.57 -5.32,-7.4 -3.35,-2.68 -7.58,-4.23 -11.13,-6.71 -8.78,-6.13 -11.67,-13.94 -7.89,-20.4 4.3,-7.35 17.95,-11.44 25.61,-6.9 4.43,2.62 8.41,6.41 11.72,10.4 6.73,8.11 12.67,16.87 19.3,25.06 6.27,7.74 7.93,15.21 0.66,23.23 -0.93,1.03 -1.16,2.71 -1.72,4.12 7.8,2.33 16.42,-1.38 20.08,-8.76 3.93,-7.91 1.12,-14.49 -5.1,-19.84 -4.68,-4.03 -10.22,-7.2 -14.32,-11.71 -2.37,-2.61 -2.66,-7.12 -3.89,-10.77 3.39,-0.89 6.85,-1.59 10.17,-2.7 8.08,-2.69 17.22,-3.99 23.88,-8.73 11.91,-8.48 24.44,-13.02 38.82,-13.56 2.92,-0.11 5.8,-1.19 9.64,-2.03 -6.23,-10.54 -0.03,-13.14 7.69,-13.96 17.19,-1.81 34.4,-3.96 51.65,-4.5 11.47,-0.36 18.95,-5.55 25.55,-13.43 -0.21,-1.02 -0.42,-2.04 -0.63,-3.05 -8.77,1.01 -17.54,2.02 -27.37,3.15 -2.85,-10.71 -13.47,-8.86 -22.61,-9.82 -15.1,-1.59 -30.27,-2.63 -45.33,-4.48 -3.15,-0.39 -6,-3.3 -8.98,-5.04 2.87,-2.47 5.46,-6.48 8.67,-7.07 5.58,-1.02 11.71,-0.75 17.31,0.42 20.79,4.33 41.53,8.93 62.13,14.05 12.82,3.19 25.79,6.48 37.93,11.55 17.78,7.42 36.17,7.4 54.77,8.2 7.46,0.32 15.37,2.27 22.07,5.54 8.88,4.34 8.53,7.36 0.42,12.69 -5.54,3.64 -11.16,7.14 -16.75,10.71 0.34,1 0.69,2.01 1.03,3.01 5.24,-0.73 10.63,-0.91 15.69,-2.3 10.79,-2.96 21.24,-2.78 32.09,0.06 6.15,1.61 12.85,1.17 19.31,1.55 9.16,0.53 18.32,1.08 27.49,1.4 9.48,0.32 19.15,1.65 28.4,0.28 20.23,-3 39.55,-2.72 57.55,8.43 4.48,2.77 9.34,4.92 13.82,7.69 10.38,6.41 20.32,10.53 32.99,4.19 5.4,-2.7 13.31,-0.44 20.08,-0.33 5.55,0.09 11.25,1.14 16.6,0.19 3.5,-0.62 9.13,-3.89 9.28,-6.25 0.61,-9.98 7.71,-10.34 13.83,-9.43 23.81,3.55 47.5,7.92 71.2,12.18 10,1.79 19.84,4.96 29.9,5.88 15.73,1.45 31.59,1.34 47.38,2.27 5.84,0.35 12.13,0.61 17.34,2.9 18.25,8.03 37.59,6.55 56.66,8.1 15.63,1.27 31.14,4.06 46.7,6.16 1.73,0.23 3.47,0.41 6.48,0.76 -1.46,-3.74 -2.5,-6.41 -4.08,-10.47 2.81,-0.34 5.3,-1.09 7.7,-0.87 34.33,3.12 68.32,7.84 101.35,18.44 19.69,6.32 39.79,11.38 59.76,16.83 2.62,0.71 5.78,1.17 8.25,0.38 19.52,-6.21 29.33,8 42.15,18.9 -9.9,6.57 -18.74,3.14 -27.43,0.76 -11.89,-3.27 -23.66,-6.99 -35.57,-10.19 -3.05,-0.82 -6.44,-0.42 -10.73,-0.63 1.58,4.11 2.63,6.82 3.97,10.3 -5.16,0.6 -9.53,1.11 -13.9,1.62 -0.21,0.75 -0.42,1.5 -0.63,2.25 15.53,6.71 31.05,13.43 46.58,20.14 -0.16,1.25 -0.32,2.49 -0.48,3.74 -4.25,0.86 -8.47,2.24 -12.76,2.48 -10.12,0.55 -18.64,3.13 -24.31,12.62 -4.85,8.1 -11.6,11.6 -21.12,6.03 -2.54,-1.49 -6.79,-1.38 -9.8,-0.48 -8,2.38 -15.84,5.38 -23.58,8.53 -8.18,3.33 -9.32,7.4 -3.15,13.98 4.37,4.66 9.59,9.04 15.27,11.86 13.45,6.69 16.76,20.05 22.66,31.79 0.38,0.76 0.57,2.19 0.14,2.68 -8.77,9.96 -0.06,19.8 0.01,29.68 0.02,2.81 -0.15,7.38 -1.64,8.06 -2.93,1.34 -8.34,2.07 -10.12,0.35 -20.93,-20.11 -45.83,-36.43 -60.6,-62.43 -1.39,-2.45 -2.08,-6.13 -1.39,-8.8 2.61,-10.16 5.2,-20.43 9.19,-30.09 3.73,-9.05 0.96,-15.8 -5.05,-21.84 -1.79,-1.8 -5.63,-2.88 -8.04,-2.3 -1.72,0.42 -3.35,4.05 -3.76,6.47 -1.39,8.13 -3.84,9.57 -11.77,6.73 -7.25,-2.6 -14.6,-4.93 -21.99,-7.12 -8.11,-2.4 -11.38,2.4 -12.88,9.29 -0.39,1.8 -0.39,3.7 -0.46,5.55 -0.53,14.91 -5.17,19.25 -19.51,14.18 -24.15,-8.53 -47.89,0.49 -71.8,-0.07 -9.44,-0.22 -14.24,9.04 -17.52,17.38 -3.28,8.35 -6.54,16.76 -8.95,25.38 -0.66,2.35 1.15,7.43 2.96,8.08 9.21,3.28 19.1,8.39 28.18,7.44 13.27,-1.39 23.86,1.64 31.86,10.93 13.7,15.91 31.31,29.69 35.06,52.06 3.42,20.35 0.35,40.25 -8.34,59 -5.54,11.94 -10.96,14.25 -23.75,11.61 -6.99,-1.44 -14.64,7.36 -15.38,17.7 -1.1,15.5 -1.1,15.5 -12.75,25.45 2.22,2.34 4.18,4.94 6.65,6.89 4.86,3.85 10.12,7.19 15,11.02 4.87,3.82 10.57,7.25 13.89,12.2 4.12,6.15 10.25,15.62 8.1,20.15 -2.79,5.9 -12.74,8.61 -19.93,12.01 -1.17,0.55 -4.85,-1.94 -5.92,-3.84 -3.32,-5.94 -5.9,-12.29 -8.83,-18.45 -4.31,-9.05 -10.81,-15.44 -20.47,-19.18 -3.72,-1.44 -7.4,-5.57 -9.01,-9.36 -5.57,-13.17 -14.62,-16.77 -26.93,-9.71 -8.67,4.97 -11.61,3.81 -14.79,-5.86 -4.64,-14.1 -7.97,-14.8 -18.58,-4.15 -4.15,4.17 -8.3,8.45 -13.01,11.92 -5.85,4.32 -5.1,7.96 0.27,11.44 5.71,3.7 11.54,7.29 17.65,10.27 2.1,1.03 5.46,0.8 7.75,-0.1 9.47,-3.71 18.56,-2.7 28.13,4.16 -5.42,4.33 -11.02,8.16 -15.86,12.79 -9.72,9.28 -9.15,14.19 0.61,23.17 4.02,3.7 6.65,8.88 10.18,13.17 4.67,5.67 9.03,11.81 14.57,16.5 6.77,5.72 12.77,10.66 4.68,19.46 13.79,7.3 14.22,7.41 10.57,22.22 -3.11,12.62 -7.08,25.05 -11.15,37.4 -8.99,27.28 -31.45,37.38 -56.84,41.73 -13.69,2.35 -24.96,6.62 -33.02,18.11 -0.65,0.92 -1.9,1.42 -2.93,2.15 -0.98,-0.66 -2.14,-1 -2.4,-1.69 -5.82,-15.21 -15.26,-14.63 -29.4,-6.4 -13.29,7.73 -16.77,19.59 -8.97,31.26 4.25,6.36 9.65,12.16 15.32,17.34 15.47,14.12 24.97,31.47 29.33,51.71 3.06,14.2 -1.41,22.88 -13.48,30.58 -5.84,3.73 -10.66,9.07 -15.91,13.72 -2.08,1.84 -3.84,4.23 -6.2,5.53 -2.26,1.24 -5.66,2.57 -7.54,1.69 -1.66,-0.78 -2.38,-4.49 -2.69,-7.01 -0.44,-3.56 -0.11,-7.21 -0.11,-13.07 -11.21,6.28 -15.2,-1.34 -20.98,-7.04 -9.01,-8.87 -18.77,-17.12 -28.97,-24.61 -7.7,-5.65 -9.85,-3.89 -10.53,5.43 -0.63,8.62 -2.52,17.16 -2.79,25.77 -0.17,5.27 0.76,10.98 2.76,15.85 7.22,17.59 19.7,30.84 34.22,43.12 14.8,12.51 16.48,32.16 20.8,49.76 1.6,6.5 -4.35,5.41 -8.11,3.46 -11.56,-5.98 -21.28,-14.17 -26.84,-26.17 -3.77,-8.12 -7.12,-16.55 -9.53,-25.16 -3.05,-10.93 -8.16,-20.09 -17.75,-26.34 -6.65,-4.33 -9.64,-10.17 -8.79,-18.1 0.93,-8.62 2.01,-17.25 2.33,-25.9 0.21,-5.72 0.25,-11.83 -1.48,-17.17 -4.47,-13.84 -9.89,-27.37 -15.05,-40.98 -3.5,-9.22 -7.09,-9.83 -15.24,-4.1 -3.93,2.76 -11.53,6.74 -12.93,5.41 -3.79,-3.61 -6.33,-9.56 -7.25,-14.95 -2.46,-14.46 -9.75,-25.78 -19.84,-35.91 -6.22,-6.25 -12.61,-12.61 -17.44,-19.9 -5.2,-7.84 -10.39,-11.45 -19.96,-7.84 -7.49,2.83 -15.61,3.95 -23.35,6.21 -6.03,1.76 -10.27,5.05 -10.6,12.37 -0.13,2.89 -2.58,6.18 -4.87,8.37 -12.6,12.07 -25.47,23.87 -38.27,35.75 -5.22,4.85 -10.19,10.02 -15.78,14.4 -7.57,5.93 -9.89,12.77 -9.11,22.62 1.85,23.56 -0.85,46.5 -16.24,66.08 -7.48,9.51 -18.35,8.74 -23.11,-2.44 -16.4,-38.48 -32.76,-76.99 -48.15,-115.88 -3.27,-8.27 -2.22,-18.22 -3.42,-27.36 -0.76,-5.76 -1.99,-11.46 -4.33,-17.32 -6.33,5.51 -7.39,17.19 -17.89,13.88 -7.43,-2.34 -13.88,-7.78 -21.8,-12.44 4.95,-4.2 7.6,-6.45 10.19,-8.65 -8.07,-4.87 -15.59,-8.98 -22.59,-13.82 -3.92,-2.71 -7.4,-6.33 -10.36,-10.11 -5.84,-7.48 -12.85,-10.22 -22.55,-9.86 -23.47,0.87 -47.05,1.61 -70.44,0.08 -7.51,-0.49 -15.4,-7.33 -21.56,-12.96 -6,-5.49 -11.36,-7.33 -19.17,-5.36 -17.85,4.49 -42.01,-7.08 -51.53,-23.46 -3.21,-5.52 -7.13,-11.07 -12.01,-15.01 -2.95,-2.38 -10.46,-3.75 -12.24,-1.94 -3.09,3.14 -4.54,9.12 -4.37,13.83 0.14,3.9 3.58,7.7 5.63,11.51 3.67,6.8 7.98,13.33 10.97,20.41 6.39,15.15 6.11,15.26 20.46,7.19 1.3,2.29 2.92,4.46 3.84,6.9 4.57,12.07 17.27,16.23 27.56,8.48 4.67,-3.52 8.53,-8.1 12.89,-12.05 2.39,-2.16 5.05,-4.03 7.52,-5.98 3.08,7 4.56,13.95 8.64,18.65 4.3,4.96 11.07,7.76 16.76,11.53 1.29,0.86 2.57,1.75 3.8,2.69 20.88,16.07 15.89,16.69 4.08,29.71 -10.96,12.09 -19.55,26.33 -30.47,38.46 -4.61,5.12 -12.57,7.18 -18.91,10.8 -6.35,3.63 -12.78,7.19 -18.81,11.32 -7.33,5.03 -13.65,11.9 -21.5,15.72 -17.55,8.54 -35.59,16.13 -53.78,23.25 -14.97,5.86 -19.68,3.23 -25.31,-11.84 -1.3,-3.48 -2.94,-7.04 -3.24,-10.65 -2.02,-24.71 -17.34,-42.25 -31.42,-60.77 -6.62,-8.72 -10.86,-19.25 -16.16,-28.97 -4.57,-8.38 -8.25,-17.41 -13.85,-25.04 -13.2,-17.98 -28.35,-34.62 -35.4,-56.45 -0.49,-1.53 -2.06,-2.71 -4,-5.16 -1.79,4.78 -3.14,8.39 -4.99,13.31 -5.89,-6.59 -11.26,-12.58 -16.62,-18.58 -0.74,0.43 -1.48,0.87 -2.22,1.3 1.08,2.88 1.83,5.95 3.31,8.61 14.53,26.33 29.37,52.5 43.66,78.95 3.3,6.11 4.69,13.23 7.24,19.77 3,7.68 5.8,15.52 9.63,22.79 5.45,10.36 11.43,20.48 17.83,30.28 3.67,5.6 8.05,11.04 13.12,15.37 15.24,13.01 29.46,26.42 36.19,46.25 3.14,9.25 13.52,13.34 25.12,10.74 19.57,-4.39 39,-9.44 59.61,-14.49 3.42,7.54 4.14,17.01 0.01,25.41 -12.19,24.73 -25,49.17 -38.42,73.26 -3.49,6.26 -9.47,11.65 -15.38,15.97 -26.44,19.32 -46.34,44.83 -66.45,69.97 -17.59,21.99 -21.28,47.49 -8,72.42 10.67,20.04 8.95,41.51 11.95,62.34 1.68,11.64 -6.61,21.55 -15.3,29.58 -2.03,1.88 -4.3,3.88 -6.84,4.77 -20.63,7.25 -31.64,24.98 -44.82,40.42 -4.58,5.36 -5.73,10.73 -2.29,17.01 1.34,2.44 2.44,5.02 3.51,7.6 5.86,14.13 2.97,24.36 -9.6,33.09 -3.29,2.29 -6.92,4.17 -10.59,5.8 -8.66,3.85 -12.38,11.21 -10.77,19.6 2.01,10.48 -0.24,17.94 -8.95,24.11 -3.14,2.23 -4.76,6.49 -7.55,9.36 -16.41,16.82 -32.4,34.11 -49.68,49.99 -10.07,9.26 -22.51,12.26 -37.2,9.47 -9.48,-1.8 -20.19,1.38 -30.09,3.53 -18.26,3.98 -28.78,-4.84 -27.35,-23.39 0.3,-3.85 -0.22,-8.29 -1.91,-11.68 -5.4,-10.78 -10.37,-22.09 -17.65,-31.55 -10.7,-13.92 -15.51,-29.18 -17.23,-46.25 -2.31,-23.03 -7.39,-46.09 -19.82,-65.41 -21.3,-33.1 -15.93,-64.14 2.21,-95.3 5.08,-8.73 6.64,-16.35 2.97,-26.12 -2.75,-7.31 -2.55,-15.73 -3.61,-23.67 -0.2,-1.53 0.32,-3.33 -0.31,-4.6 -9.75,-19.79 -11.78,-43.35 -29.05,-59.47 -2.49,-2.32 -4.72,-4.92 -7.07,-7.4 -9.32,-9.85 -11.59,-20.87 -8.33,-34.29 2.73,-11.21 4.7,-23.29 3.48,-34.6 -1.77,-16.36 -10.4,-22.37 -26.99,-21.26 -10.16,0.68 -17.35,0.21 -21.12,-11.81 -3.12,-9.94 -20.75,-14.82 -32.63,-10.99 -9.44,3.05 -18.73,6.56 -28.1,9.84 -13.8,4.83 -27.38,8.38 -42.66,6.01 -9,-1.4 -19.08,1.53 -28.21,4.14 -15.61,4.46 -29.36,1.69 -42.27,-7.53 -16.58,-11.85 -30.25,-25.58 -39.61,-44.56 -6.49,-13.16 -18.64,-23.47 -27.83,-35.38 -4.6,-5.97 -12.95,-10.67 -7.31,-21.01 1.48,-2.71 -1.88,-7.8 -2.27,-11.87 -0.47,-4.79 -2.03,-10.9 0.18,-14.29 12.08,-18.5 13.21,-37.78 5.6,-57.73 -3.49,-9.14 -4.06,-17.97 0.97,-25.92 14.22,-22.49 28.93,-44.68 44.04,-66.58 2.98,-4.31 8.43,-7.05 13.03,-10.09 11.64,-7.71 21.51,-16.25 23.31,-31.58 1.4,-11.94 8.97,-20.64 17.92,-28.44 9.04,-7.88 17.54,-16.42 25.78,-25.14 3.53,-3.74 6.63,-5.4 11.21,-2.58 15.99,9.83 31.33,8.39 47.33,-0.93 20.11,-11.71 42,-15.4 65.42,-13.32 11.13,0.99 22.63,-2.1 33.96,-3.35 4.58,-0.51 9.2,-1.59 13.74,-1.32 2.28,0.13 6.02,2.4 6.34,4.2 1.34,7.44 3.12,15.33 1.87,22.56 -1.2,6.96 0.07,12.09 5.32,15.34 6.43,3.99 13.5,7.46 20.75,9.5 11.21,3.15 21.88,6 29.12,16.52 2.48,3.61 8.06,5.37 12.53,7.26 5.69,2.4 11.77,3.85 17.53,6.08 9.04,3.5 16.99,-0.82 18.43,-10.31 2.91,-19.14 8.67,-22.25 27.48,-15.85 18.13,6.17 36.37,12.11 54.77,17.39 6.11,1.75 12.9,1.28 19.38,1.59 12.86,0.61 25.74,0.87 38.59,1.62 10.37,0.6 16.92,-2.71 19.1,-12.24 3.84,-16.77 6.98,-33.71 9.67,-50.7 0.3,-1.92 -4.14,-6.54 -6.4,-6.55 -5.4,-0.02 -11.06,1.32 -16.16,3.28 -7.47,2.87 -14.25,3.15 -21.37,-0.92 -6.34,-3.63 -12.5,-4.76 -20.15,-1.21 -12.89,5.98 -29.52,-5.24 -33.8,-20.84 -1.4,-5.11 -3.97,-10.27 -7.27,-14.4 -4.98,-6.22 -1.48,-9.45 3.72,-9.22 10.26,0.46 16.83,-6.7 25.16,-9.63 24.97,-8.78 50.24,-21.48 77.34,-5.17 5.42,3.26 12.16,5.07 18.49,5.83 5.94,0.71 12.62,0.39 18.15,-1.67 12.75,-4.75 14.31,-15.08 3.44,-23.02 -10.24,-7.48 -21.24,-13.96 -32.24,-20.31 -5.78,-3.34 -8.02,-6.17 -4.69,-13.12 2.95,-6.16 3.57,-13.44 6,-23.42 -13.56,5.86 -24.75,10.7 -35.93,15.53 0.04,0.98 0.08,1.96 0.12,2.94 3.43,2.11 6.86,4.22 10.29,6.32 -7.16,9.78 -17.59,12.28 -25,5.82 -1.53,-1.33 -3.68,-3.73 -3.35,-5.12 2.45,-10.21 -6.8,-12.23 -12.04,-14.69 -3.01,-1.41 -10.2,3.07 -13.86,6.6 -12.39,11.94 -19.66,27.07 -23.04,43.78 -0.68,3.36 1.99,7.79 4.05,11.15 1.1,1.79 4.2,2.34 6.4,3.46 -0.65,1.53 -1.3,3.06 -1.96,4.6 -9.61,0.73 -19.24,2.21 -28.82,1.93 -7.28,-0.21 -14.25,-1.66 -19.74,4.71 -0.58,0.67 -1.44,1.19 -2.28,1.52 -12.59,5.08 -12.72,5.13 -6.42,17.51 3.2,6.28 6.31,12.65 1.79,19.2 -1.99,2.88 -7.75,6.88 -8.48,6.28 -4.13,-3.34 -7.68,-7.68 -10.37,-12.3 -0.59,-1.01 3.09,-4.54 4.87,-6.86 0.52,-0.68 1.27,-1.17 3.18,-2.89 -3.72,-1.15 -6.43,-2 -9.14,-2.82 -12.01,-3.64 -20.02,-10.63 -21.28,-23.99 -1.34,-14.19 -10.14,-21.79 -22.6,-28.02 -14.25,-7.13 -27.21,-16.87 -40.57,-25.74 -3.49,-2.32 -6.18,-7.24 -10.94,-2.82 -5.08,4.7 -2.24,9.61 1.6,12.85 16.25,13.76 32.8,27.19 49.41,40.52 3.71,2.98 8.13,5.09 11.61,9.78 -5.44,0 -10.87,0 -18.09,0 4.27,11.39 3.59,20.46 -8.26,26.13 -0.18,-2.59 -0.47,-4.6 -0.44,-6.61 0.16,-13.34 -7.88,-26.74 -20.71,-29.82 -17.73,-4.26 -27.68,-16.98 -37.16,-30.4 -9.22,-13.04 -10.74,-13.88 -24.55,-5.55 -10.39,6.28 -21.04,9.92 -33.58,7.52 -9.67,-1.85 -13.82,2.21 -15.71,11.84 -0.5,2.57 -2.61,5.62 -4.86,6.93 -15.88,9.26 -28.38,19.99 -34.09,39.35 -4.24,14.4 -18.09,21.82 -34.12,23.44 -5.94,0.6 -11.49,4.51 -17.42,6.22 -2.66,0.77 -6.17,0.64 -8.66,-0.48 -7.74,-3.48 -14.9,-8.37 -22.82,-11.28 -6.45,-2.37 -9.16,-6.49 -8.94,-12.45 0.34,-9.25 1.47,-18.47 2.45,-27.69 0.81,-7.68 2.65,-15.33 2.68,-22.99 0.07,-14.12 5.78,-19.33 20.13,-17.65 12.61,1.48 25.26,2.97 37.93,3.44 16.03,0.59 17.97,-1.41 21,-16.93 3.6,-18.46 -0.37,-26.21 -17.48,-34.92 -3.13,-1.59 -5.83,-4.04 -10.97,-7.69 2.91,-1.43 4.23,-2.37 5.69,-2.74 12.17,-3.13 24.5,-5.7 36.49,-9.4 5.76,-1.78 11.38,-4.96 16.2,-8.63 15.19,-11.56 29.64,-24.13 45.11,-35.28 5.5,-3.96 13.05,-5.2 19.78,-7.3 11.47,-3.59 13.03,-6.38 9.15,-17.62 -4.62,-13.46 -0.07,-22.11 15.6,-27.34 z m 442.52,145.25 c -1.5,-14.64 -17.39,-24.45 -31.66,-17.35 -11.09,5.51 -20.46,14.61 -30.15,22.66 -1.58,1.31 -2.14,6.31 -0.94,8.09 6.19,9.15 12.47,18.38 19.91,26.49 11.84,12.9 16.46,27.33 13.06,44.47 -0.46,2.34 -0.9,6.51 0.1,7.03 12.73,6.59 25.71,12.7 38.68,18.81 0.58,0.27 1.71,-0.57 2.57,-0.92 11.91,-4.82 15.12,-20.15 6.89,-31.98 -3.91,-5.62 -7.39,-11.54 -11.87,-18.6 5.2,-0.54 8.37,-0.06 10.51,-1.32 1.99,-1.17 4.57,-5.2 3.96,-6.25 -3.3,-5.64 -4.65,-14.63 -14.99,-11.22 -1.25,0.41 -3.21,0.03 -4.34,-0.72 -6.95,-4.63 -14.49,-8.73 -20.32,-14.52 -3.37,-3.35 -6.45,-10.5 -5.06,-14.22 1.66,-4.44 7.9,-7.73 12.83,-10.16 2.94,-1.46 7.17,-0.28 10.82,-0.29 z"
   id="path1" /> <path
   d="m 825.99,1596.73 c 14.34,12.18 28.75,24.27 42.98,36.57 9.46,8.17 19.8,13.93 32.74,13.17 24.04,-1.4 39.05,11.29 49.05,31.5 3.28,6.64 6.19,13.58 8.17,20.69 0.84,3.03 -0.17,7.55 -2.05,10.17 -4.31,6 -9.77,11.17 -14.57,16.83 -2.38,2.81 -4.33,5.97 -6.48,8.97 0.73,0.75 1.46,1.49 2.19,2.24 3.59,-2.53 7.25,-4.96 10.74,-7.62 4.19,-3.19 8.04,-6.86 12.39,-9.79 5.88,-3.95 11.3,-2.45 15.62,2.81 4.68,5.7 -0.44,9.02 -3.58,12.55 -1.81,2.03 -4.26,3.5 -6.47,5.27 6.26,2.86 6.26,2.86 14.94,-3.48 14.03,-10.24 23.6,-10.29 35.43,1.59 3.92,3.94 5.16,10.56 8.05,16.89 14.55,-7.88 30.21,-4.3 45.44,-0.76 7.49,1.74 14.31,6.65 21.21,10.51 9.89,5.53 19.13,12.46 29.47,16.88 13.17,5.63 18.84,12.63 16.78,26.95 -0.95,6.64 -2.34,13.8 -5.73,19.39 -9.31,15.34 -19.03,30.56 -30.1,44.64 -5.88,7.48 -8.39,14.46 -7.77,23.66 2.1,31.24 -3.97,61.08 -16.61,89.63 -5.87,13.26 -14.11,22.79 -30.67,19.11 -1.71,-0.38 -4.01,-0.25 -5.44,0.63 -12.91,7.93 -25.77,15.95 -38.46,24.22 -5.03,3.28 -6.01,8.04 -4.01,13.88 3.89,11.34 -0.09,21.4 -4.22,32.18 -7.45,19.45 -16.47,37.86 -28.12,55.06 -2.61,3.85 -4.92,7.92 -7.79,11.56 -6.43,8.19 -14.61,10.93 -24.79,7.59 -7.2,-2.37 -14.58,-4.2 -21.88,-6.27 -0.48,0.82 -0.95,1.64 -1.43,2.47 1.43,1.57 2.89,3.11 4.28,4.72 4.01,4.65 8.75,8.88 11.85,14.08 8.99,15.1 5.53,25.62 -10.87,32.45 -6.16,2.57 -13.11,3.84 -19.81,4.37 -7.74,0.61 -11.9,2.31 -9.16,11.3 0.99,3.26 0.18,7.38 -0.73,10.86 -1.66,6.29 -5.35,8.25 -11.9,5.31 -3.51,-1.57 -7.93,-1.1 -11.93,-1.55 1.57,4.43 2.42,9.34 4.93,13.15 2.05,3.12 6.08,4.93 9.84,7.78 -5.03,11.3 -9.75,22.48 -14.96,33.42 -3.41,7.16 1.21,11.25 5.31,15.27 14.51,14.22 13.9,14.17 7.25,33.55 -2.83,8.26 -2.61,17.96 -2.01,26.88 0.53,7.96 -6.29,14.06 -16.01,14.6 -18.1,1 -26.65,-12.46 -36.23,-23.37 -6.38,-7.26 -10.36,-16.85 -14.42,-25.84 -4.27,-9.45 -8.33,-18.63 -17.73,-24.32 -4.23,-2.56 -5.2,-5.52 -0.2,-9.23 7.99,-5.93 9.29,-12.39 4.83,-21.94 -6.56,-14.04 -9.18,-30.23 -22.48,-40.69 -2.18,-1.71 -3.58,-5.3 -4.01,-8.21 -2.43,-16.43 -6.17,-32.92 -6.2,-49.39 -0.05,-24.29 -2.97,-48.11 -5.39,-72.16 -3.22,-31.99 -5.37,-64.44 -3.77,-96.48 1.87,-37.65 -14.62,-62.63 -45.94,-79.02 -17.93,-9.38 -31.47,-21.41 -39.21,-40.17 -2.21,-5.35 -6.49,-9.82 -9.4,-14.93 -6.4,-11.25 -12.25,-22.83 -18.87,-33.95 -7.22,-12.13 -14.19,-24.56 -22.85,-35.62 -9.05,-11.56 -10.85,-21.33 -2.74,-33.66 4.05,-6.16 9.87,-11.69 -0.57,-18.07 -2.3,-1.4 -2.54,-8.93 -1.26,-12.82 2.3,-6.96 6,-13.61 9.98,-19.83 4.84,-7.56 10.33,-14.74 15.97,-21.74 15.9,-19.75 16.22,-41.35 8.15,-64.08 -0.71,-2 -2.37,-4.37 -1.83,-5.97 2.02,-6.01 0.77,-9.95 -5.83,-10.65 -6.67,-0.71 -14.36,-2.49 -17.36,6.28 -2.32,6.78 -6.25,7.72 -12.16,5.22 -14.56,-6.16 -29.14,-12.04 -40.72,-23.59 -5.56,-5.55 -9.96,-10.69 -12.46,-18.74 -2.94,-9.49 -9.56,-17.85 -14.82,-26.57 -0.55,-0.91 -2.75,-1.44 -4.03,-1.22 -18.86,3.31 -32.68,-6.41 -45.83,-17.68 -3.28,-2.81 -5.96,-6.31 -9.04,-9.37 -7.86,-7.81 -17.13,-10.44 -27.17,-5.27 -8.76,4.51 -16.2,3.19 -24.5,-1.3 -17.18,-9.29 -35,-17.4 -52.13,-26.78 -7.51,-4.11 -14.89,-9.32 -20.57,-15.61 -3.33,-3.68 -5.45,-11.09 -4.19,-15.77 3.33,-12.35 0.04,-22.56 -6.27,-32.6 -1.65,-2.63 -2.99,-5.59 -5.14,-7.74 -15.31,-15.28 -21.51,-35.91 -31.74,-54.13 -4.16,-7.41 -5.77,-16.26 -8.46,-24.48 -0.86,-2.63 -0.62,-6.27 -2.35,-7.84 -3.15,-2.87 -7.39,-4.54 -11.17,-6.71 -2,3.58 -5.97,7.39 -5.59,10.69 0.8,6.91 3.73,13.62 6.1,20.29 3.42,9.63 7.56,19.03 10.6,28.77 4.21,13.49 7.7,27.21 11.5,40.84 -8.32,-0.87 -20.25,-14.81 -19.37,-24.42 0.64,-7.03 -1.96,-11.23 -7.07,-14.86 -7.56,-5.37 -10.78,-11.62 -8.04,-21.55 1.26,-4.55 -2.55,-10.42 -3.76,-15.75 -2.16,-9.5 -5.39,-18.99 -5.81,-28.59 -0.52,-11.94 -4.14,-20.56 -14.71,-26.97 -4.46,-2.7 -8.59,-8.38 -9.84,-13.45 -2.55,-10.34 -3.03,-21.19 -4.42,-31.82 -0.2,-1.51 -0.53,-3.08 -1.17,-4.45 -6.37,-13.69 -1.51,-25.75 5.72,-37.2 16.01,-25.36 32.51,-50.4 48.37,-75.85 6.47,-10.37 10.73,-11.39 18.83,-2.72 13.48,-8.17 15.8,-18.52 6.3,-30.53 -4.41,-5.57 -10.28,-10.03 -14.36,-15.8 -2.04,-2.89 -1.86,-7.55 -2.09,-11.45 -0.19,-3.21 0.27,-6.51 0.85,-9.7 1.08,-5.89 1.13,-12.58 4.13,-17.34 2.78,-4.41 4.28,-7.72 2.47,-12.54 -0.75,-2 -1.5,-4.34 -1.18,-6.35 2.64,-16.45 -7.09,-23.13 -19.74,-31.31 -19.12,-12.37 -40.38,-15.33 -61.3,-20.15 -6.94,-1.6 -15.27,0.62 -22.44,2.81 -10.71,3.26 -20.77,6.6 -32.59,4.77 -6.23,-0.96 -13.5,3.2 -19.99,5.82 -33.32,13.43 -66.52,27.2 -99.85,40.61 -4.41,1.77 -9.37,2.16 -14.73,1.63 18.96,-13.38 42.65,-18.16 60.39,-34.28 -10.79,0.98 -21.66,5.01 -30.54,-6.09 2.92,-1.84 5.62,-3.69 8.45,-5.3 5.88,-3.35 9.55,-8.02 8.76,-15.08 -0.93,-8.26 3.35,-13.2 10.47,-15.46 9.12,-2.89 18.6,-4.64 27.79,-7.32 8.88,-2.59 17.75,-5.33 26.29,-8.82 3.37,-1.37 5.85,-4.92 7.79,-9.54 -6.39,1.09 -12.81,3.19 -19.15,2.98 -6.42,-0.21 -12.76,-2.71 -21.11,-4.68 8.03,-10.07 17.2,-11.76 26.16,-13.08 6.07,-0.9 12.43,0.35 18.54,-0.4 7.42,-0.9 14.71,-2.89 23.32,-4.68 -1.83,-3.42 -2.22,-5.02 -3.23,-5.9 -9.94,-8.68 -8.1,-13.17 4.97,-15.99 36.29,-7.84 72.43,-17.04 109.14,-21.91 19.11,-2.53 39.39,2.19 58.94,5.01 21.14,3.05 41.93,8.51 63.09,11.36 13.33,1.8 27.18,1.99 40.57,0.64 19.34,-1.95 38.47,-5.96 57.69,-9.04 1.51,-0.24 3.13,-0.35 4.63,-0.11 28.15,4.5 56.29,9.07 85.6,13.81 -1.73,4.23 -2.6,6.35 -4.3,10.5 6.74,0 12.71,0.28 18.65,-0.06 11.74,-0.66 23.94,-2.75 27.19,14.77 3.28,-2.93 5.01,-4.5 6.76,-6.05 12.59,-11.09 26.53,-16.4 43.64,-12.01 7.99,2.05 16.48,2.73 24.77,2.92 8.46,0.19 16.51,0.07 23.99,5.34 2.15,1.52 6.93,0.48 9.99,-0.7 5.74,-2.22 10.93,-5.9 16.67,-8.09 15.76,-6.03 16.46,-7.41 7.2,-22.81 9.05,-4.04 17.7,-8.53 26.81,-11.73 5.33,-1.87 8.09,1.78 7.55,7.29 -0.33,3.37 -2.08,7.01 -1.22,9.96 0.83,2.82 3.91,6.54 6.52,7 11.43,2.04 11.48,1.66 7.39,12 -0.43,1.09 -0.48,2.34 -1.16,5.86 4.87,-0.75 9.3,-0.36 12.48,-2.16 6.14,-3.47 11.82,-7.89 17.23,-12.46 7.45,-6.3 15.49,-8.92 24.98,-5.88 5.72,1.83 7.62,5.12 3.64,10.37 -9.88,13.03 -21.28,22.88 -39.03,23.73 -10.65,0.51 -21.12,4.01 -31.76,5.47 -5.87,0.8 -11.93,0.14 -19.1,0.14 2.23,3.83 4.39,7.54 7.92,13.62 -13.69,2.45 -26.05,4.36 -38.25,7.03 -3.78,0.83 -7.23,3.53 -10.63,5.7 -4.63,2.95 -8.95,6.39 -13.59,9.32 -15.65,9.87 -31.66,19.21 -46.98,29.56 -7,4.73 -7.95,10.58 -2.13,18.88 5.95,8.47 12.67,13.39 22.23,16.64 15.52,5.27 30.56,11.97 45.85,17.94 5.08,1.98 6.43,5.43 4.79,10.34 -1.68,4.99 -3.46,9.95 -5.16,14.94 -2.8,8.24 -0.02,16.29 6.86,19.04 3.75,1.5 10.99,-4.11 15.87,-7.61 2.76,-1.98 4.63,-5.96 5.71,-9.41 4.08,-13.03 12.57,-21.59 24.74,-27.42 5.8,-2.78 11.14,-6.8 16.09,-10.98 7.23,-6.1 10.92,-13.69 9.71,-23.82 -0.46,-3.88 2.02,-8.7 4.44,-12.22 5.04,-7.34 11.47,-13.75 16.31,-21.2 5.97,-9.18 14.05,-15.45 24.6,-13.41 11.92,2.31 23.52,7 34.77,11.81 6.72,2.88 8.51,9.45 6.38,16.65 -0.35,1.19 -1.26,2.65 -0.87,3.54 1.98,4.59 3.61,9.64 6.83,13.21 1.22,1.35 6.87,0.03 9.64,-1.57 10.15,-5.86 19.93,-12.35 32.4,-20.2 1.71,12.17 3.14,22.84 4.74,33.48 0.89,5.9 0.62,12.62 3.48,17.42 4.72,7.92 4.66,14.12 -1.47,21.83 3.06,-0.64 6.09,-1.44 9.18,-1.88 3.93,-0.57 8.45,-2.22 11.72,-0.92 4.49,1.79 10.04,5.25 11.38,9.25 1.05,3.14 -2.51,9.59 -5.87,12.15 -16.82,12.81 -36.03,20.58 -57.04,23.34 -8.89,1.17 -18.01,2.31 -26.89,1.64 -25.09,-1.91 -45.71,9.29 -66.3,20.98 -1.3,0.74 -2.35,1.96 -3.36,3.1 -0.3,0.33 -0.05,1.15 -0.05,3.42 4.9,-1.81 9.28,-3.56 13.74,-5.04 9.68,-3.2 19.32,-6.6 29.18,-9.15 2.84,-0.73 6.36,1.17 9.56,1.86 -0.94,3.07 -1.7,6.21 -2.89,9.18 -0.55,1.37 -1.88,2.44 -2.92,3.59 -8.83,9.81 -6.52,18.98 6.33,23.49 3.97,1.4 8.48,1.6 12.76,1.7 3.91,0.09 7.84,-0.71 11.76,-1.11 0.38,0.74 0.76,1.49 1.15,2.23 -4.95,3.04 -9.62,6.72 -14.9,8.99 -11.38,4.9 -22.97,9.37 -34.69,13.36 -3.29,1.12 -7.37,-0.06 -11.08,-0.19 2.27,-2.82 4.09,-6.28 6.93,-8.31 4.34,-3.08 9.38,-5.17 14.13,-7.68 -0.31,-0.98 -0.61,-1.96 -0.92,-2.94 -4.63,0.68 -9.61,0.51 -13.84,2.19 -16.71,6.62 -33.41,13.36 -49.62,21.08 -4.79,2.28 -7.7,8.26 -11.96,11.99 -5.43,4.75 -10.76,11.33 -17.18,12.93 -20.62,5.16 -35.05,19.44 -50.95,31.59 -3.75,2.87 -5.98,7.73 -9.4,12.35 -1.45,-0.67 -3.48,-1.62 -7.11,-3.3 -0.87,4.77 -2.21,9.07 -2.36,13.41 -0.6,16.82 -8.87,28.06 -23.21,36.54 -14.61,8.65 -28.53,18.56 -42.24,28.61 -11.75,8.61 -14.42,21.03 -12.16,34.92 1.09,6.72 2.1,13.48 2.69,20.26 0.37,4.29 1.08,9.13 -0.45,12.87 -2.07,5.05 -6.15,9.28 -9.37,13.87 -3.3,-4.05 -8.25,-7.65 -9.53,-12.26 -2.44,-8.76 -3.5,-18.09 -3.76,-27.22 -0.25,-8.75 -5.75,-16 -14.5,-17.52 -8.47,-1.46 -16.98,-3.13 -25.16,-5.72 -12.33,-3.9 -22.08,-1.78 -29.58,8.65 -3.94,5.49 -8.28,6.97 -14.35,4.87 -1.76,-0.61 -3.78,-0.71 -5.31,-1.66 -16.68,-10.34 -30.97,-4.08 -46.92,3.79 -19.62,9.68 -32.7,22.56 -36.55,44.37 -0.96,5.44 -2.84,10.89 -5.28,15.86 -10.46,21.22 -3.15,40.54 6.28,59.41 5.94,11.89 16.4,16.03 29.67,13.69 16.76,-2.96 30.5,-9.42 37.18,-26.84 3.34,-8.71 23.48,-14.83 31.93,-11.03 5.74,2.58 5.46,7.05 3.47,11.71 -5.85,13.68 -12.15,27.18 -17.73,40.96 -1.99,4.91 -2.44,10.44 -3.59,15.69 5.37,0.3 10.74,0.76 16.11,0.87 8.96,0.19 17.96,-0.26 26.88,0.36 6.92,0.48 10.54,4.75 9.69,12.04 -1.52,12.91 -2.73,25.87 -4.64,38.73 -3.44,23.1 15.85,39.86 37.49,32.17 10.11,-3.59 19.7,-3.33 27.89,4.13 6.75,6.15 12.24,4.37 17.38,-1.69 2.59,-3.05 4.91,-6.4 6.96,-9.84 5.28,-8.89 12,-15.4 22.71,-17.69 4.25,-0.91 7.84,-4.69 11.83,-6.99 4.33,-2.5 8.77,-4.8 14.36,-6.29 -3.68,13.14 -8.84,25.41 -3.94,38.4 0.98,0.36 1.97,0.72 2.95,1.08 1.58,-3.69 5.47,-8.51 4.32,-10.86 -4.48,-9.14 0.99,-13.31 6.9,-17.63 7.04,-5.13 13.8,-4.81 21.56,-0.31 8.98,5.2 18.71,9.27 28.46,12.88 4.79,1.77 10.42,1.13 15.58,2.06 9.36,1.69 18.67,3.73 27.99,5.62 z M 681.03,1141.87 c 0.1,0.85 0.2,1.7 0.3,2.55 -2.89,1.28 -5.67,3.24 -8.69,3.73 -24.07,3.92 -32.79,23.47 -42.49,41.78 -1.15,2.16 1.09,6.11 1.75,9.23 2.99,-0.71 7.21,-0.42 8.73,-2.31 4.81,-5.99 8.79,-12.68 12.75,-19.3 6.02,-10.06 13.1,-19.04 24.72,-22.71 3.47,-1.1 7.63,-0.05 11.47,0.02 -1.18,3.49 -2.49,6.94 -3.51,10.47 -0.83,2.88 -2.54,8 -1.78,8.43 3.66,2.06 8.27,4.31 12.07,3.66 3.29,-0.56 5.72,-5.2 8.93,-7.47 2.76,-1.96 6.05,-3.21 9.18,-4.63 2.58,-1.17 6.8,-1.5 7.54,-3.32 1.1,-2.69 0.92,-8.22 -0.76,-9.28 -4.56,-2.86 -10.28,-5.73 -15.39,-5.48 -12.51,0.6 -16.74,-2.18 -17.87,-14.97 -0.95,-10.66 -6.13,-16.14 -16.84,-15.37 -9.49,0.68 -19.19,2.25 -28.17,5.27 -8.21,2.76 -15.58,8.01 -23.31,12.15 0.35,1.39 0.7,2.77 1.04,4.16 4.59,0.41 10.09,2.65 13.59,0.89 9.84,-4.93 18.75,-4.47 28.35,0.06 2.87,1.35 6.71,0.57 10.08,0.97 2.78,0.36 5.53,0.98 8.31,1.47 z m 28.84,51.49 c -0.35,-1.08 -0.7,-2.16 -1.05,-3.24 -8.69,-4.21 -21.95,1.32 -24.72,13.29 8.59,-3.35 17.18,-6.7 25.77,-10.05 z m 42.86,-20.52 c -7.84,-2.51 -15.06,-2.64 -21.57,5.55 9.69,4.48 15.79,0.08 21.57,-5.55 z"
   id="path2" /> <path
   d="m 3156.9,1857.64 c 10.49,21.87 20.34,40.6 28.32,60.1 2.59,6.32 -0.22,14.68 0.41,22.03 0.47,5.46 1.39,11.41 4.04,16.04 6.12,10.7 13.61,20.61 20.2,31.06 8.58,13.61 16.43,27.69 25.37,41.05 3.96,5.92 4.45,11.28 3.9,18.18 -2.41,30.36 -12.82,57.63 -35.59,77.58 -22.18,19.44 -41.44,41.42 -62.05,62.22 -3.4,3.43 -9.07,6.11 -13.84,6.37 -10.13,0.56 -18.87,3.49 -26.3,10.15 -4.58,4.1 -8.47,4.47 -12.45,-0.65 -3.89,-5.01 -8.38,-6.13 -14.69,-3.59 -9.86,3.97 -26.67,-1.22 -32.84,-9.65 -1.41,-1.93 -1.53,-5.03 -1.66,-7.63 -0.51,-9.77 -0.78,-19.55 -1.23,-31.67 -5.38,3.9 -7.94,5.76 -10.5,7.62 -0.77,-0.55 -1.54,-1.1 -2.3,-1.65 4.17,-6.51 8.34,-13.01 12.52,-19.52 -0.7,-0.85 -1.39,-1.71 -2.09,-2.56 -8.32,5.2 -16.65,10.41 -26.21,16.39 -2.39,-3.85 -5.09,-7.82 -7.41,-12.01 -10.8,-19.51 -22.18,-24.65 -44.41,-21.78 -23.24,3 -45.66,8.34 -67.06,18.09 -5.84,2.66 -12.46,3.63 -18.77,5.18 -17.41,4.29 -34.93,8.2 -52.25,12.84 -9.15,2.45 -17.76,3.07 -25.85,-2.49 -4.78,-3.28 -6.54,-6.59 -1.35,-11.91 10.61,-10.88 14,-23.86 11.51,-39.29 -1.9,-11.75 -1.32,-23.98 -1.11,-35.98 0.22,-12.99 1.56,-25.96 1.91,-38.95 0.43,-16.04 6.18,-28.36 22.21,-34 20.12,-7.08 40.28,-14.06 60.45,-21.01 12.53,-4.31 20.33,-13.58 26.74,-24.58 6.25,-10.73 6.42,-10.63 13.99,-10.9 12.78,-12.34 23.25,-23.92 35.27,-33.57 9.83,-7.89 14.77,-6.57 24.81,1.12 2.69,2.06 5.57,3.99 8.62,5.44 4.74,2.24 7.85,0.52 8.63,-4.71 1.89,-12.69 10.13,-19.98 21.13,-24.86 4.25,-1.89 8.99,-2.88 12.9,-5.27 13.2,-8.06 25.76,-3.55 38.3,1.37 5.28,2.07 6.85,6.04 3.88,11.23 -1.54,2.69 -3.26,5.27 -4.81,7.96 -4.42,7.65 -4.48,15.28 2.68,20.93 10.92,8.61 22.26,16.77 34,24.2 2.46,1.56 8.88,0.46 11.06,-1.77 9.42,-9.64 16.18,-20.77 17.87,-34.86 1.2,-10.06 4.34,-19.94 7.17,-29.74 1,-3.61 3.6,-6.75 6.88,-12.55 z"
   id="path3" /> <path
   d="m 1478.6,767.67 c -7.02,2.25 -14.07,4.43 -21.06,6.75 -7.59,2.53 -15.45,4.54 -22.62,7.98 -6.12,2.93 -9.83,8.27 -8.88,15.94 0.28,2.23 -0.6,5.06 -1.91,6.95 -12.49,18.09 -27.34,32.87 -50.88,35.02 -2.46,0.22 -4.88,0.85 -7.3,1.39 -0.54,0.12 -0.98,0.66 -2.85,1.98 9.04,6.47 17.71,12.68 27.28,19.53 -16.36,11.88 -25.63,-7.72 -37.28,-6.06 -2.13,4.85 -3.98,9.03 -6.07,13.78 6.25,4.96 17.36,-5.21 24.32,6.31 -3.83,1.76 -7.09,4.17 -10.65,4.75 -18.02,2.94 -36.28,4.62 -54.12,8.34 -10.98,2.29 -22.36,5.88 -31.77,11.75 -12.4,7.73 -25.07,13.5 -39.33,15.79 -21.02,3.38 -37.77,13.05 -49.53,31.23 -4.7,7.26 -10.17,14.12 -16.03,20.5 -9.59,10.45 -16.21,11.51 -28.8,5.13 -5.77,-2.93 -11.54,-6.18 -16.55,-10.22 -9.87,-7.96 -14.96,-17.91 -11.07,-31.14 1,-3.41 1.23,-7.65 0.13,-10.95 -3.13,-9.48 0.39,-16.49 7.26,-22.26 6.4,-5.37 13.47,-9.93 19.93,-15.25 9.39,-7.74 9.01,-20.69 0.2,-29.15 -3.24,-3.11 -5.76,-7.56 -7.15,-11.87 -5.27,-16.36 -15.34,-34.74 -40.53,-33.99 -11.72,0.35 -23.51,-0.63 -35.23,-1.56 -5.96,-0.47 -10.22,-4.13 -8.88,-10.56 0.59,-2.8 3.89,-6.99 6.23,-7.18 30.4,-2.49 58.76,-11.9 86.78,-23.3 8.11,-3.3 17.52,-4.05 26.42,-4.62 11.74,-0.75 23.6,-0.7 35.36,-0.06 37.43,2.04 74.28,-2.86 111.09,-8.5 1.84,-0.28 3.68,-0.66 5.53,-0.74 19.8,-0.8 39.59,-1.76 59.4,-2.24 19.76,-0.48 38.77,3.01 57.18,10.62 5.76,2.38 12.66,2.33 19.08,2.73 7.03,0.43 14.1,0.1 21.15,0.1 0.38,1.02 0.76,2.05 1.15,3.08 z"
   id="path4" /> <path
   d="m 3078.39,1761.84 c 11.88,-7.84 20.97,-14.25 30.51,-19.9 2.81,-1.66 7.53,-2.69 10.25,-1.49 24.08,10.62 48.09,21.45 71.7,33.05 7.38,3.62 13.77,9.48 20.11,14.89 5.75,4.91 9.93,10.44 8.03,19.38 -0.79,3.73 1.96,9.29 4.81,12.51 8.59,9.68 17.84,18.81 27.23,27.73 2.54,2.42 6.52,3.33 9.84,4.93 -1.45,1.74 -2.89,3.48 -4.34,5.22 -16.43,-4.04 -32.74,-7.9 -44.65,-22.37 -5.23,-6.35 -11.55,-12.03 -18.2,-16.9 -7.2,-5.28 -13.71,-3.05 -19.25,4 -11.95,15.23 -19.57,16.3 -35.31,4.91 -5.95,-4.31 -11.42,-8.09 -19.43,-6.01 -2.33,0.6 -5.43,-1.75 -8.87,-3 1.38,-2.35 1.86,-3.87 2.87,-4.8 8.21,-7.58 9.08,-10.41 1.94,-18.84 -4.47,-5.28 -10.42,-9.85 -16.6,-13.02 -10.15,-5.21 -20.69,-10.21 -31.65,-13.15 -16.28,-4.37 -17.93,-6.35 -10.06,-21.46 -3.19,-1.7 -6.43,-3.35 -9.59,-5.14 -3.14,-1.78 -6.2,-3.71 -9.7,-5.81 4.14,-7.52 11.12,-9.97 16.77,-7.89 5.58,2.05 10.55,7.66 14.07,12.86 4.15,6.09 6.42,13.44 9.52,20.3 z"
   id="path5" /> <path
   d="m 955.86,944.77 c 2.07,1.74 4.41,3.25 6.12,5.29 1.81,2.17 3.02,4.84 4.49,7.29 -3.09,0.84 -6.34,2.77 -9.23,2.33 -12.44,-1.89 -23.49,-7.85 -30.57,-17.87 -7.9,-11.18 -16.94,-12.79 -28.98,-9.37 -5.21,1.48 -11.56,3.9 -17.38,-5.5 7.89,-1.29 14.51,-3.5 21.01,-3.18 10,0.49 18.76,1.65 26.91,-7.38 3.68,-4.08 12.93,-3.4 19.73,-4.3 5.73,-0.77 11.58,-0.71 17.48,-1.02 -9.85,-11.88 -18.07,-22.4 -26.95,-32.33 -7.35,-8.22 -15.8,-14.43 -27.38,-6.77 -0.75,0.49 -1.77,0.89 -2.63,0.83 -18.76,-1.21 -37.61,-1.71 -56.22,-4.11 -8.77,-1.13 -10.03,-6.84 -3.7,-13.14 11.76,-11.69 25.31,-20.21 44.68,-20.8 -4.98,6.57 -8.74,11.54 -12.51,16.5 0.54,0.68 1.08,1.36 1.62,2.04 2.64,-1.6 5.39,-3.04 7.89,-4.84 17.58,-12.69 26.92,-13.07 44.79,-1.4 6.64,4.34 12.86,8.26 21.41,3.77 2.18,-1.15 6.79,1.23 9.77,2.91 8.51,4.78 17.01,9.67 25.01,15.23 3.94,2.74 9.23,6.81 9.63,10.71 0.93,9.13 5.55,14.45 12.25,19.62 4.82,3.71 13.51,6.3 8.42,15.64 -4.52,8.31 -10.43,9.46 -21.48,4.86 -4.21,-1.75 -8.71,-3.47 -13.18,-3.78 -5.3,-0.36 -8.26,2.28 -5.54,8.24 1.4,3.07 2.88,6.3 3.31,9.59 1.36,10.57 -4.31,14.67 -14.23,11.04 -4.32,-1.58 -8.97,-2.26 -13.46,-3.35 -0.36,1.08 -0.72,2.16 -1.08,3.25 z"
   id="path6" /> <path
   d="m 2889.95,1705.33 c -4.68,8.69 -9.45,17.33 -14.02,26.08 -4.87,9.34 -9.07,19.07 -14.6,27.99 -1.84,2.97 -7.02,5.86 -10.39,5.56 -13.14,-1.19 -26.13,-3.9 -39.23,-5.62 -11.38,-1.5 -18.79,-6.73 -21.23,-18.57 -1.74,-8.48 -4.94,-16.66 -6.76,-25.13 -2.47,-11.48 2.36,-16.4 13.91,-15.76 2.24,0.13 4.96,-1.59 6.85,-3.19 5.38,-4.55 10.45,-9.47 15.65,-14.23 0.45,-0.41 1.2,-0.59 1.51,-1.07 10.28,-15.98 28.12,-23.53 40.88,-36.71 8.87,-9.17 10.94,-9.38 20.33,-0.37 2.24,2.15 5.26,4.02 6.36,6.67 1.27,3.06 2.44,8.2 0.86,10.08 -11.32,13.45 -10.67,26.31 0.14,39.46 1.14,1.39 1.68,3.26 2.51,4.9 -0.92,-0.03 -1.85,-0.06 -2.77,-0.09 z"
   id="path7" /> <path
   d="m 2094.81,1873.56 c 6.94,11.71 11.05,21.84 8.1,33.47 -2.43,9.59 -5.22,19.09 -8.16,28.53 -7.46,23.92 -15.19,47.76 -22.61,71.69 -3.96,12.79 -8.46,24.61 -23.77,28.01 -10.97,2.44 -21.15,-2.16 -24.04,-12.93 -3.77,-14.02 -5.46,-27.97 4.43,-40.77 7.47,-9.68 8.38,-20.78 6.58,-32.66 -2.65,-17.49 2.02,-24.72 17.6,-32.08 15.49,-7.32 27.5,-18.81 36.44,-33.43 1.56,-2.55 2.91,-5.25 5.43,-9.83 z"
   id="path8" /> <path
   d="m 695.74,841.09 c 4.91,12.52 5.91,12.7 15.17,5.27 4.51,-3.61 9.01,-7.88 16.94,-3.52 -3.15,6.4 -6.2,12.6 -9.61,19.53 4.71,2.93 9.51,5.91 15.57,9.68 -13.41,7.84 -25.45,15.11 -40.23,11.71 -11.15,-2.56 -21.29,-1.19 -31.65,3.35 -21.45,9.42 -39.19,-1.74 -57.42,-9.66 0.04,-0.85 0.09,-1.71 0.13,-2.56 10.47,-1.33 20.95,-2.66 31.42,-3.99 0.04,-0.67 0.07,-1.33 0.11,-2 -7.33,-1.27 -14.65,-2.54 -23.81,-4.12 3.68,-2.46 5.98,-3.99 8.97,-5.98 -7.01,-4.89 -13.07,-9.69 -22.2,-4.55 -5.61,3.16 -11.97,5.72 -18.27,6.62 -4.09,0.58 -8.67,-2.33 -13.03,-3.68 2.17,-3.23 3.61,-7.72 6.64,-9.46 10.46,-6.01 21.21,-11.67 32.33,-16.33 17.24,-7.22 33.8,-2.75 51.75,4.72 -4.1,1.82 -6.54,2.91 -11.28,5.02 17.64,-0.92 32.43,11 48.47,-0.05 z"
   id="path9" /> <path
   d="m 2629.52,1650.93 c 12.18,1.55 22.17,8.1 31.3,15.85 15.76,13.38 31.15,27.22 46.56,41 2.5,2.23 5.63,4.92 6.26,7.87 2.97,14.05 14.08,22.25 22.27,32.54 6.02,7.56 13.07,15.24 10.59,25.59 -1.35,5.64 -5.24,12.44 -9.97,14.91 -3.61,1.89 -12.19,-0.51 -15.36,-3.95 -10.39,-11.3 -20.68,-23.12 -28.52,-36.23 -16.21,-27.12 -32.19,-54.19 -54.15,-77.26 -4.8,-5.05 -8.11,-11.51 -12.11,-17.32 1.05,-0.99 2.09,-2 3.13,-3 z"
   id="path10" /> <path
   d="m 915.19,800.74 c 11.93,-0.83 23.86,-1.65 37.61,-2.6 -2.82,-4.07 -4.12,-5.96 -6.24,-9.03 6.47,0 11.93,0 18.29,0 -1.2,-4 -2.04,-6.82 -3.41,-11.39 5.08,-0.84 9.67,-2.17 14.28,-2.25 12.39,-0.21 24.79,0.33 37.18,0.08 3.17,-0.06 6.3,-1.91 9.44,-2.95 -0.15,-1.35 -0.31,-2.71 -0.46,-4.06 -16.67,0 -33.34,0 -50,0 -0.05,-1.51 -0.1,-3.02 -0.15,-4.53 53.12,-7.66 106.92,-8.37 162.95,-14.67 -3.59,2.89 -4.91,4.37 -6.56,5.21 -26.7,13.59 -54.45,23.95 -84.45,27.55 -4.23,0.51 -8.46,2.03 -12.41,3.74 -18.75,8.12 -37.26,16.79 -56.18,24.49 -4.21,1.71 -9.72,0.6 -14.59,0.24 -8.54,-0.63 -17.07,-1.59 -25.58,-2.58 -6.73,-0.78 -13.42,-1.8 -20.13,-2.71 0.15,-1.5 0.28,-3.02 0.41,-4.54 z"
   id="path11" /> <path
   d="m 3012.72,1303.61 c -10.24,-17.97 -24.31,-13.6 -38.5,-10.31 -4.09,0.95 -8.71,-0.35 -13.57,-2.44 8.56,-5.99 14.13,-15.65 26.21,-15.27 10.28,0.32 36.21,-17.43 38.81,-27.26 1.3,-4.91 -0.23,-10.87 -1.56,-16.08 -1.28,-5.04 -4.3,-9.62 -5.83,-14.62 -0.6,-1.98 0.02,-5.44 1.43,-6.61 1.37,-1.14 4.67,-0.83 6.77,-0.12 10.01,3.41 19.13,16.97 20.11,28.11 0.62,7.01 1.86,14.06 3.73,20.84 3.75,13.54 -0.02,22.27 -13.77,25.21 -10.86,2.32 -21.73,2.93 -23.83,18.55 z"
   id="path12" /> <path
   d="m 1523.5,1027.16 c 13.97,6.07 20.34,17.38 26.02,29.27 2.46,5.16 4.91,9.29 11.98,9.82 7.39,0.56 4.07,4.63 1.87,9.02 -7.66,15.27 -22.07,15.58 -35.95,17.48 -8.17,1.12 -16.33,2.35 -25.32,1.4 6.22,-3.13 12.44,-6.27 20.51,-10.33 -6.7,-2.6 -11.41,-4.43 -18.83,-7.31 6.7,-6.69 12.35,-12.09 17.67,-17.8 1.68,-1.8 4.03,-5.19 3.37,-6.53 -2.03,-4.13 -5.06,-10.52 -8.25,-10.86 -12.1,-1.3 -10.75,-11.06 -10.51,-17.4 0.23,-5.84 5.52,-11.6 9.05,-17.08 0.47,-0.73 4.1,-0.29 5.59,0.66 3.52,2.24 6.63,5.11 10.89,8.51 -2.2,2.99 -4.77,6.55 -8.09,11.15 z"
   id="path13" /> <path
   d="m 1678.07,806.06 c 4.97,-1.3 9,-2.35 13.04,-3.4 0.05,-0.55 0.09,-1.1 0.14,-1.65 -2.09,-0.37 -4.63,-1.7 -6.19,-0.96 -9.26,4.42 -16.87,-0.86 -24.7,-3.98 -2.05,-0.82 -3.12,-4.1 -4.65,-6.25 2.37,-1.59 4.73,-4.54 7.1,-4.54 10.51,-0.03 21.02,1.11 31.54,1.15 4.76,0.02 9.52,-2.12 14.3,-2.23 3.52,-0.09 7.07,1.52 11.94,2.7 4.68,-5.88 11.48,-9.4 21.59,-6.01 6.54,2.19 14.1,1.2 21.17,1.97 3.48,0.38 6.87,1.49 12.38,2.74 -13.71,14.02 -27.94,6.8 -42.08,7.56 8.72,4.95 17.43,9.91 26.15,14.86 -0.43,1.13 -0.86,2.27 -1.29,3.4 -2.37,0 -4.75,0.15 -7.1,-0.04 -3.02,-0.25 -6.11,-1.44 -9,-1.04 -4.91,0.69 -7.68,0.36 -9.6,-5.4 -2.61,-7.81 -9.37,-8.14 -14.76,-1.57 -1.97,2.39 -3.76,4.93 -5.76,7.3 -10.99,13.01 -23.11,11.77 -34.22,-4.61 z"
   id="path14" /> <path
   d="m 3265.27,2300.77 c -5.61,-3.3 -9.62,-5.67 -13.64,-8.03 2.55,-3.54 4.38,-8.23 7.8,-10.41 8.59,-5.46 17.97,-9.65 26.9,-14.6 20.79,-11.52 41.47,-23.23 62.25,-34.74 4.68,-2.59 9.72,-9.26 14.74,-0.97 4.51,7.47 -0.34,11.86 -6.4,15.72 -19.19,12.22 -37.95,25.14 -57.46,36.8 -10.69,6.4 -22.58,10.8 -34.19,16.23 z"
   id="path15" /> <path
   d="m 2942.55,1733.13 c -1.47,1.4 -2.77,3.06 -4.45,4.14 -6.95,4.48 -8.23,10.12 -4.71,17.55 1.97,4.15 3.45,8.7 4.1,13.22 0.38,2.62 -1.33,5.54 -2.11,8.32 -2.66,-1.2 -6.19,-1.72 -7.81,-3.75 -3.96,-4.99 -7.04,-10.67 -10.62,-16.31 -6.56,3.33 -9.23,7.63 -6.82,14.52 1.01,2.9 2.64,6.52 1.71,8.93 -1.32,3.41 -4.75,6.01 -7.27,8.95 -2.03,-2.56 -4.94,-4.82 -5.91,-7.73 -1.82,-5.43 -2.77,-11.21 -3.58,-16.91 -0.41,-2.9 -0.26,-6.1 0.54,-8.91 2.53,-8.86 6.24,-17.45 8.14,-26.43 4.36,-20.58 11.31,-25.8 32,-23.06 4.86,0.64 9.98,0.86 14.78,0.05 4.72,-0.79 9.17,-3.13 13.89,-4.85 1.76,12.85 -8.5,19.92 -21.68,16.43 -6.14,-1.63 -12.74,-2.74 -19.01,-2.31 -5.96,0.41 -12.26,3.56 -10.84,11.13 1.45,7.75 7.69,8.71 14.57,7.12 4.65,-1.07 9.36,-1.9 14.05,-2.84 0.35,0.92 0.69,1.83 1.03,2.74 z"
   id="path16" /> <path
   d="m 2097.53,819.45 c -6.64,1.73 -13.28,3.47 -19.93,5.2 -8.97,2.34 -18.19,4.01 -26.84,7.23 -5.63,2.1 -11.03,5.8 -15.48,9.93 -11.75,10.91 -11.68,15.91 -1.05,27.53 -7.54,3.25 -30.9,-0.13 -34.96,-6.84 -1.89,-3.12 0.66,-10.17 3.01,-14.44 13.33,-24.21 35.57,-31.63 61.6,-31.93 7.39,-0.08 14.74,-1.88 22.15,-2.37 3.63,-0.24 7.34,0.68 11.02,1.08 0.17,1.53 0.33,3.07 0.48,4.61 z"
   id="path17" /> <path
   d="m 3414.18,2155.09 c 1.13,4.51 2.28,9.01 3.37,13.53 1.2,4.96 1.48,10.36 3.69,14.81 3.45,6.94 9.38,10.51 19.52,8.92 -2.12,3.59 -3.41,8.28 -6.49,10.59 -13.1,9.82 -26.69,18.98 -40.17,28.28 -2.79,1.92 -5.74,3.79 -8.88,4.96 -1.65,0.62 -3.88,-0.33 -5.85,-0.57 0.41,-1.95 0.14,-4.8 1.34,-5.69 6,-4.43 6.5,-9.72 5.97,-16.86 -0.29,-3.89 4.29,-10.41 8.18,-11.96 17.1,-6.81 17.05,-19.92 14.87,-34.54 -0.51,-3.41 -0.08,-6.97 -0.08,-10.46 1.52,-0.33 3.03,-0.67 4.53,-1.01 z"
   id="path18" /> <path
   d="m 702.67,1466.62 c -6.77,1.6 -11.89,3.81 -17.02,3.8 -7.66,-0.02 -15.35,-1.43 -22.97,-2.62 -1.88,-0.29 -4.23,-1.59 -5.2,-3.15 -12.37,-20.01 -36.32,-28.85 -57.98,-21.28 -2.97,1.04 -6.15,1.47 -9.23,2.18 -0.56,-1.04 -1.12,-2.09 -1.68,-3.13 3.09,-2.23 5.87,-5.23 9.31,-6.56 14.56,-5.65 29.95,-7.66 44.43,-1.6 18.77,7.86 36.71,17.69 54.95,26.81 1.49,0.75 2.48,2.49 5.39,5.55 z"
   id="path19" /> <path
   d="m 2849.65,1826.77 c -2.86,0.28 -5.81,1.12 -8.58,0.75 -10.13,-1.38 -20.2,-3.17 -30.29,-4.8 -15.49,-2.49 -31.03,-4.75 -46.46,-7.58 -6.04,-1.11 -11.96,-3.19 -17.7,-5.43 -1.95,-0.76 -4.7,-3.78 -4.37,-5.08 0.56,-2.2 3.28,-5.46 5.08,-5.45 9.1,0.04 18.77,-0.74 27.12,2.08 9.23,3.12 17.69,3.89 27.18,2.74 5.66,-0.69 11.86,1.37 17.55,3.09 4.96,1.5 9.61,4.14 14.27,6.51 5.84,2.98 11.56,6.2 17.33,9.32 -0.37,1.28 -0.75,2.56 -1.13,3.85 z"
   id="path20" /> <path
   d="m 1365.45,933.78 c 1.52,-2.06 2.93,-5.8 5.59,-7.23 5.91,-3.18 12.25,-6.26 18.77,-7.48 11.15,-2.09 22.59,-3.66 33.89,-3.58 6.17,0.04 12.31,3.92 18.27,7.87 -23.29,18.54 -47.31,28.58 -76.52,10.42 z"
   id="path21" /> <path
   d="m 2945.49,1555.5 c -22.86,1.47 -41.75,-9.17 -50.51,-28.04 -1.23,-2.65 -1.91,-6.06 -1.47,-8.9 1.14,-7.31 2.74,-14.59 4.82,-21.7 0.76,-2.61 3.03,-6.1 5.2,-6.6 2.28,-0.53 6.1,1.36 7.82,3.39 6.63,7.86 10.77,16.3 6.18,27.22 -5.2,12.37 1.45,22.08 15.43,23.29 6.93,0.61 11.7,2.98 12.53,11.34 z"
   id="path22" /> <path
   d="m 952.57,1124.21 c 13.18,-12.29 26.37,-24.58 39.55,-36.86 1.42,0.23 2.84,0.46 4.26,0.69 -9.1,13.62 -1.65,17.54 8.36,21.6 4.01,1.63 6.24,7.64 9.28,11.65 -3.74,2.28 -7.2,5.58 -11.26,6.65 -16.22,4.29 -32.4,1.61 -48.53,-0.58 -0.55,-1.04 -1.11,-2.1 -1.66,-3.15 z"
   id="path23" /> <path
   d="m 1458.12,1074.82 c 0,-7.34 -0.04,-14.68 0.05,-22.02 0.01,-0.83 0.51,-2.12 1.14,-2.4 10.44,-4.7 19.12,-14.13 32,-12.29 6.06,0.87 8.96,3.99 6.04,10.3 -1.16,2.52 -3.29,5 -3.36,7.54 -0.56,19.07 -16.09,20.93 -29.08,25.55 -5.71,2.03 -8.88,-0.55 -9.02,-6.64 0.74,-0.01 1.49,-0.03 2.23,-0.04 z"
   id="path24" /> <path
   d="m 957.08,820.47 c -7.04,6.21 -15.17,10.45 -24.83,9.77 -20.67,-1.47 -41.3,-3.55 -61.95,-5.32 -7.65,-0.66 -7.19,-4.38 -3.47,-9.14 5.15,-6.58 14.59,-9.48 22.71,-5.3 14.08,7.25 28.81,5.68 43.65,5.47 7.96,-0.11 15.94,0.96 23.91,1.49 -0.02,1.01 -0.02,2.02 -0.02,3.03 z"
   id="path25" /> <path
   d="m 2930.13,1625.54 c 4.22,-4.11 7.29,-9.34 9.66,-9.04 14.01,1.75 21.93,-5.55 28.35,-18.57 8.06,12.77 13.08,24.55 12.84,38.84 -3.9,-0.6 -6.77,-1.05 -10.48,-1.63 0.24,3.98 0.44,7.19 0.63,10.29 -9.77,4.62 -12.41,3.8 -16.95,-5.13 -0.84,-1.65 -1.58,-3.35 -2.23,-5.08 -2.39,-6.38 -5.72,-10.96 -13.73,-8.5 -1.51,0.48 -3.47,-0.44 -8.09,-1.18 z"
   id="path26" /> <path
   d="m 2999.41,1157.85 c 17.79,8.43 33.56,15.9 50.3,23.83 -7.79,7.57 -12.86,16.51 -25.13,11.83 -7.59,-2.89 -9.99,2.99 -11.06,9.17 -10.51,-4.92 -13.24,-12.11 -9.83,-21.38 1.31,-3.56 0.71,-8.09 0.07,-12.03 -0.57,-3.37 -2.43,-6.53 -4.35,-11.42 z"
   id="path27" /> <path
   d="m 2936.19,1060.71 c 17.88,16.29 35.76,32.58 54.96,50.07 -4.48,1.19 -6.84,1.82 -11.1,2.95 8.27,10.82 15.79,20.67 23.88,31.27 -9.43,3.28 -14.64,-0.8 -18.43,-6.66 -4.87,-7.53 -8.36,-15.99 -13.54,-23.28 -9.5,-13.36 -19.84,-26.13 -29.75,-39.21 -3.08,-4.07 -5.88,-8.35 -8.8,-12.54 0.92,-0.86 1.85,-1.73 2.78,-2.6 z"
   id="path28" /> <path
   d="m 931.18,2399.17 c -19.15,0 -36.09,6.04 -52.11,-3.8 -8.22,-5.05 -10.6,-10.87 -6.85,-18.36 2.87,-5.72 7.01,-7.64 12.8,-4.34 14.65,8.35 29.25,16.79 46.16,26.5 z"
   id="path29" /> <path
   d="m 694.71,1486.35 c 3.64,0 7.28,0.08 10.91,-0.02 5.62,-0.15 10.96,-0.42 9.18,-8.77 -0.3,-1.43 2,-4.4 3.73,-5.1 9.42,-3.8 35.25,3.35 41.93,11.22 -10.02,10.43 -53.44,13.4 -65.75,2.67 z"
   id="path30" /> <path
   d="m 3097.85,2233.25 c -2.51,11.22 -22.81,29.05 -31.79,27.94 -2.7,-0.33 -5.02,-4.71 -7.18,-7.49 -0.46,-0.59 0.47,-2.31 0.83,-3.49 2.07,-6.87 3.43,-19.22 6.36,-19.61 10.27,-1.34 21.07,1.43 31.78,2.65 z"
   id="path31" /> <path
   d="m 803.37,831.01 c -3.13,16.07 -13.24,21.13 -23.71,25.8 -12.94,5.77 -15.64,-8.62 -22.51,-10.64 14.15,-4.65 28.95,-9.5 46.22,-15.16 z"
   id="path32" /> <path
   d="m 2452.1,1602.31 c 8.76,8.68 14.51,17.6 16.75,28.21 1.67,7.88 -4.54,10.79 -10.87,12.22 -6.47,1.46 -7.76,-3.47 -8.56,-8.2 -1.77,-10.39 -4.15,-20.89 2.68,-32.23 z"
   id="path33" /> <path
   d="m 825.33,922.3 c 6.81,3.29 13.2,5.57 18.5,9.37 2,1.43 1.48,6.38 2.12,9.73 -2.77,0.46 -5.53,1.32 -8.3,1.31 -7.5,-0.04 -15.02,-0.26 -22.5,-0.8 -3.12,-0.23 -6.17,-1.45 -9.25,-2.22 1.32,-2.92 1.89,-6.8 4.12,-8.55 4.38,-3.44 9.67,-5.69 15.31,-8.84 z"
   id="path34" /> <path
   d="m 893.68,780.1 c 13.08,-8.72 24.41,-14.37 38.02,-12.4 2.82,0.41 5.23,3.65 7.83,5.59 -1.91,2.23 -3.45,5 -5.78,6.6 -12.14,8.31 -24.64,7.83 -40.07,0.21 z"
   id="path35" /> <path
   d="m 2897.99,1422.39 c -1.16,3.76 -2.47,9.48 -4.71,14.82 -1.97,4.69 -5.13,4.56 -8.51,0.73 -7.19,-8.17 -4.52,-24.49 5.27,-28.82 1.61,-0.71 5.61,1.22 6.8,3.04 1.33,2.06 0.73,5.37 1.15,10.23 z"
   id="path36" /> <path
   d="m 290.98,1091.78 c 9.19,0.91 20.62,12.57 20.15,20 -0.1,1.61 -5.59,4.75 -6.5,4.12 -6.76,-4.65 -13.13,-9.91 -19.24,-15.4 -1.04,-0.93 -1.09,-4.7 -0.1,-5.74 1.71,-1.78 4.59,-2.45 5.69,-2.98 z"
   id="path37" /> <path
   d="m 838.22,833.05 c 1.24,0 2.63,-0.36 3.69,0.07 2.39,0.98 4.62,2.36 6.91,3.57 -1.73,1.87 -3.16,4.81 -5.25,5.41 -8.9,2.57 -17.98,4.61 -27.07,6.42 -1.66,0.33 -4.73,-0.84 -5.29,-2.13 -0.58,-1.33 0.59,-4.76 1.88,-5.35 7.98,-3.65 16.21,-6.75 24.35,-10.04 0.26,0.69 0.52,1.37 0.78,2.05 z"
   id="path38" /> <path
   d="m 3237.87,1795.7 c 12.09,-5.94 24.19,-11.87 36.42,-17.88 0.35,8.25 -9.27,20.74 -20.24,23.52 -5.06,1.28 -11.3,-2.09 -17.01,-3.35 0.28,-0.76 0.56,-1.52 0.83,-2.29 z"
   id="path39" /> <path
   d="m 3407.79,1998.42 c -16.51,-1.82 -36.54,-29.14 -32.07,-41.93 11.04,14.43 21.56,28.18 32.07,41.93 z"
   id="path40" /> <path
   d="m 2984.24,1829.14 c -6.81,2.89 -13.57,5.5 -20.09,8.6 -6.13,2.92 -12.01,6.36 -19.13,10.18 1.86,-19.06 24.17,-28.54 39.22,-18.78 z"
   id="path41" /> <path
   d="m 975.67,2352.31 c -6.12,14.83 -20.38,18.2 -28.26,8.52 -1.06,-1.3 1.91,-8.67 3.41,-8.8 7.93,-0.69 15.98,0.03 24.85,0.28 z"
   id="path42" /> <path
   d="m 2969.22,1330.37 c -4.54,-7.29 -9,-13.89 -12.77,-20.86 -1.07,-1.99 -0.11,-5.07 -0.08,-7.65 2.58,0.16 5.53,-0.43 7.68,0.62 11.59,5.62 14.63,20.42 5.17,27.89 z"
   id="path43" /> <path
   d="m 3005.33,1689.77 c 0,8.73 0.54,16.44 -0.26,24 -0.33,3.14 -3.54,5.98 -5.44,8.95 -2.02,-2.98 -5.3,-5.78 -5.76,-8.99 -0.64,-4.41 0.6,-9.18 1.51,-13.7 1.16,-5.83 3.96,-10.28 9.95,-10.26 z"
   id="path44" /> <path
   d="m 2785.42,1476.62 c -6.98,6.12 -12.01,10.53 -17.03,14.93 -2.49,-3.08 -6.53,-5.9 -7.11,-9.3 -0.88,-5.21 8.14,-10.85 15.45,-10.2 2.09,0.19 4.02,2.04 8.69,4.57 z"
   id="path45" /> <path
   d="m 2897.92,1583.09 c 0.51,13.98 -12.12,28.52 -24.89,29.67 5.17,-12.54 13.8,-20.77 24.89,-29.67 z"
   id="path46" /> <path
   d="m 1680.78,1245.59 c 6.96,0.49 13.98,0.57 20.81,1.79 1.43,0.25 3.4,5.08 2.78,7.08 -0.66,2.14 -4.71,5.26 -6.19,4.76 -6.41,-2.17 -12.43,-5.52 -18.59,-8.44 0.39,-1.73 0.79,-3.46 1.19,-5.19 z"
   id="path47" /> <path
   d="m 1629.45,1219.39 c 3.86,-3.99 6.57,-6.79 9.28,-9.59 2.39,3.4 6.62,6.76 6.69,10.21 0.08,3.95 -3.54,7.97 -5.55,11.96 -3.11,-3.76 -6.22,-7.52 -10.42,-12.58 z"
   id="path48" /> <path
   d="m 769.78,882.06 c -5.54,2.73 -10.89,6.08 -16.72,7.84 -2,0.6 -5.2,-2.79 -7.85,-4.35 1.44,-2.06 2.54,-5.48 4.37,-5.93 6.13,-1.5 12.52,-1.94 18.81,-2.78 0.46,1.73 0.92,3.48 1.39,5.22 z"
   id="path49" /> <path
   d="m 1794.18,1278.54 c 11.23,-2.72 21.2,-2.28 31.42,3.58 -8.31,6.7 -21.03,5.08 -31.42,-3.58 z"
   id="path50" /> <path
   d="m 2932.47,1830.7 c -6.38,0.42 -12.8,1.35 -19.13,0.92 -1.82,-0.12 -3.38,-4.16 -5.06,-6.4 2.28,-1.09 4.72,-3.33 6.8,-3.04 5.87,0.82 11.59,2.69 17.37,4.14 0,1.47 0.01,2.92 0.02,4.38 z"
   id="path51" /> <path
   d="m 3257.01,1755.2 c 13.19,0.18 24.84,10.81 25.31,21.79 -8.93,-7.69 -17.12,-14.74 -25.31,-21.79 z"
   id="path52" /> <path
   d="m 2889.1,1830.76 c -6.07,0.49 -12.13,1.19 -18.21,1.31 -1.28,0.03 -3.02,-1.85 -3.73,-3.27 -0.33,-0.66 1.06,-2.98 2.11,-3.38 7.06,-2.66 13.94,-3.27 19.76,2.1 0.03,1.08 0.05,2.16 0.07,3.24 z"
   id="path53" /> <path
   d="m 3024.82,1758.6 c -8.41,7.46 -15.05,6.64 -21.7,3.44 -1.23,-0.59 -2.17,-2.88 -2.2,-4.41 -0.01,-0.82 2.31,-2.51 3.4,-2.37 6.13,0.75 12.2,1.94 20.5,3.34 z"
   id="path54" /> <path
   d="m 3551.32,1945.35 c -4.17,0.42 -8.33,0.84 -12.5,1.26 -0.13,-3.31 -0.26,-6.63 -0.39,-9.94 4.47,0.87 8.94,1.73 13.41,2.6 -0.17,2.03 -0.34,4.06 -0.52,6.08 z"
   id="path55" /> <path
   d="m 2990.15,1293.98 c 2.36,4.1 4.99,7.03 4.41,7.97 -2.06,3.32 -5.22,5.96 -7.97,8.86 -1.6,-2.25 -4.96,-5.11 -4.43,-6.62 1.12,-3.21 4.26,-5.71 7.99,-10.21 z"
   id="path56" /> <path
   d="m 2951.35,1567.68 c 10.46,0.12 15.76,5.47 15.73,15.73 -8.81,-2.02 -12.76,-7.77 -15.73,-15.73 z"
   id="path57" /> <path
   d="m 649.92,1488.45 c 9.96,-3.48 14.42,-2.28 20.42,5.05 -8.63,3.78 -15.89,2.18 -20.42,-5.05 z"
   id="path58" /> <path
   d="m 1909.55,1274.97 c -0.02,7.51 -8.51,14.76 -14.09,12.61 -1.21,-0.47 -2.87,-2.13 -2.76,-3.06 0.18,-1.48 1.35,-3.47 2.65,-4.08 4.33,-2 8.9,-3.48 14.2,-5.47 z"
   id="path59" /> <path
   d="m 105.78,1012.91 c 8.2,-2.47 16.4,-4.93 24.6,-7.4 0.47,1.53 0.93,3.06 1.4,4.59 -8.21,2.47 -16.42,4.95 -24.63,7.42 -0.46,-1.53 -0.91,-3.07 -1.37,-4.61 z"
   id="path60" /> <path
   d="m 3296.54,1790.4 c 3.82,5.59 7.64,11.17 11.88,17.38 -9.7,1.72 -12.99,-3.12 -11.88,-17.38 z"
   id="path61" /> <path
   d="m 2932.06,1605.72 c 0.88,-4.21 1.76,-8.42 2.64,-12.62 1.83,0.54 4.53,0.5 5.34,1.72 3.72,5.61 -0.13,8.78 -3.56,11.92 -1.48,-0.34 -2.95,-0.68 -4.42,-1.02 z"
   id="path62" /> <path
   d="m 2927.91,1571.67 c 2.38,3.84 4.8,6.14 4.34,7.31 -1.13,2.86 -3.6,5.19 -5.52,7.73 -1.64,-1.86 -4.79,-3.94 -4.56,-5.54 0.38,-2.7 2.9,-5.1 5.74,-9.5 z"
   id="path63" /> <path
   d="m 3426.37,1909.77 c 2.98,5.94 5.97,11.87 8.95,17.81 -1.46,0.71 -2.92,1.43 -4.38,2.14 -2.86,-6 -5.72,-12 -8.57,-18 1.33,-0.64 2.66,-1.29 4,-1.95 z"
   id="path64" /> <path
   d="m 781.48,1496.47 c -2.99,-2.15 -5,-3.6 -7.01,-5.05 2.51,-1.68 4.89,-4.34 7.59,-4.73 2.13,-0.31 4.65,2.19 7,3.44 -2.34,1.96 -4.68,3.92 -7.58,6.34 z"
   id="path65" /> <path
   d="m 826.02,1596.77 c 0.72,-2.02 1.05,-4.32 2.26,-5.99 1.55,-2.13 3.66,-3.98 5.9,-5.34 0.39,-0.24 4.02,3.25 3.75,3.79 -1.41,2.76 -3.24,5.59 -5.67,7.42 -1.34,1.01 -4.13,0.11 -6.27,0.07 0,0.01 0.03,0.05 0.03,0.05 z"
   id="path66" /> <path
   d="m 1647.77,1194.51 c -2.88,2.74 -4.81,4.58 -6.74,6.42 -1.62,-1.96 -4.75,-4.14 -4.5,-5.81 0.35,-2.36 3.21,-4.34 5,-6.48 1.73,1.62 3.46,3.25 6.24,5.87 z"
   id="path67" /> <path
   d="m 290.8,1042.52 c -2.55,-3.62 -5.18,-5.81 -4.8,-7.16 0.71,-2.51 3.05,-4.66 5.07,-6.58 0.22,-0.21 4.17,2.33 4.01,3.09 -0.64,3.01 -2.22,5.82 -4.28,10.65 z"
   id="path68" /> <path
   d="m 3553.3,1927.18 c 4.3,0 8.6,0 12.89,0 -3.63,6.43 -7.83,7.6 -12.68,3.48 -0.07,-1.16 -0.14,-2.32 -0.21,-3.48 z"
   id="path69" /> <path
   d="m 668.67,1413.45 c -9.98,-3.96 -11.4,-9.01 -3.87,-15 1.32,5.11 2.53,9.8 3.87,15 z"
   id="path70" /> </g> </svg>
